<svg width="512" height="512" viewBox="0 0 512 512" fill="none" xmlns="http://www.w3.org/2000/svg">
  <!-- Background Shape (App Icon Container) -->
  <rect width="512" height="512" rx="110" fill="url(#paint0_linear)"/>
  
  <!-- Subtle Staff Lines -->
  <g opacity="0.4" stroke="white" stroke-width="4">
    <line x1="80" y1="160" x2="432" y2="160"/>
    <line x1="80" y1="190" x2="432" y2="190"/>
    <line x1="80" y1="220" x2="432" y2="220"/>
    <line x1="80" y1="250" x2="432" y2="250"/>
    <line x1="80" y1="280" x2="432" y2="280"/>
  </g>

  <!-- Simplified Beamed Eighth Note (Derived from your file) -->
  <path d="M190 320C190 342.091 172.091 360 150 360C127.909 360 110 342.091 110 320C110 297.909 127.909 280 150 280C160 280 165 285 170 288V130L340 100V290C340 312.091 322.091 330 300 330C277.909 330 260 312.091 260 290C260 267.909 277.909 250 300 250C310 250 315 255 320 258V155L190 178V320Z" fill="white"/>

  <!-- Piano Keyboard Fragment (Interactive Representation) -->
  <g transform="translate(86, 380)">
    <!-- White Keys -->
    <rect x="0" y="0" width="64" height="80" rx="8" fill="white"/>
    <rect x="68" y="0" width="64" height="80" rx="8" fill="white"/>
    <rect x="136" y="0" width="64" height="80" rx="8" fill="white"/>
    <rect x="204" y="0" width="64" height="80" rx="8" fill="white"/>
    <rect x="272" y="0" width="64" height="80" rx="8" fill="white"/>
    
    <!-- Black Keys -->
    <rect x="44" y="0" width="40" height="45" rx="4" fill="#1A1A1A"/>
    <rect x="112" y="0" width="40" height="45" rx="4" fill="#1A1A1A"/>
    <rect x="248" y="0" width="40" height="45" rx="4" fill="#1A1A1A"/>
  </g>

  <defs>
    <linearGradient id="paint0_linear" x1="0" y1="0" x2="512" y2="512" gradientUnits="userSpaceOnUse">
      <stop stop-color="#6366F1"/> <!-- Indigo -->
      <stop offset="1" stop-color="#A855F7"/> <!-- Purple -->
    </linearGradient>
  </defs>
</svg>